<svg xmlns="http://www.w3.org/2000/svg" width="34" height="34" viewBox="0 0 34 34"><defs><style>.a{fill:#ebf2f9;}.b{fill:#00d1d1;}</style></defs><g transform="translate(-1870 -16)"><circle class="a" cx="17" cy="17" r="17" transform="translate(1870 16)"/><path class="b" d="M127.929,205.8a5.766,5.766,0,1,0-5.742-5.766,5.754,5.754,0,0,0,5.742,5.766Zm8.857,7.046.043-.016a9.561,9.561,0,0,0-17.746-.132l.02.008a1.414,1.414,0,0,0,2.62,1.064l.023.009a6.7,6.7,0,0,1,12.393.063l.01,0a1.414,1.414,0,0,0,2.638-.993Zm0,0" transform="translate(1759.079 -172.455)"/></g></svg>